<svg width="125" height="33" viewBox="0 0 125 33" fill="none" xmlns="http://www.w3.org/2000/svg">
<path d="M9.44 28.6C10.9333 28.6 12.0667 28.52 12.84 28.36V23C12.5733 22.92 12.1867 22.84 11.68 22.76C11.1733 22.68 10.6133 22.64 10 22.64C9.46667 22.64 8.92 22.68 8.36 22.76C7.82667 22.84 7.33333 22.9867 6.88 23.2C6.45333 23.4133 6.10667 23.72 5.84 24.12C5.57333 24.4933 5.44 24.9733 5.44 25.56C5.44 26.7067 5.8 27.5067 6.52 27.96C7.24 28.3867 8.21333 28.6 9.44 28.6ZM9.04 10.56C10.64 10.56 11.9867 10.76 13.08 11.16C14.1733 11.56 15.04 12.12 15.68 12.84C16.3467 13.56 16.8133 14.44 17.08 15.48C17.3733 16.4933 17.52 17.6133 17.52 18.84V31.52C16.7733 31.68 15.64 31.8667 14.12 32.08C12.6267 32.32 10.9333 32.44 9.04 32.44C7.78667 32.44 6.64 32.32 5.6 32.08C4.56 31.84 3.66667 31.4533 2.92 30.92C2.2 30.3867 1.62667 29.6933 1.2 28.84C0.8 27.9867 0.6 26.9333 0.6 25.68C0.6 24.48 0.826667 23.4667 1.28 22.64C1.76 21.8133 2.4 21.1467 3.2 20.64C4 20.1067 4.92 19.7333 5.96 19.52C7.02667 19.28 8.13333 19.16 9.28 19.16C9.81333 19.16 10.3733 19.2 10.96 19.28C11.5467 19.3333 12.1733 19.44 12.84 19.6V18.8C12.84 18.24 12.7733 17.7067 12.64 17.2C12.5067 16.6933 12.2667 16.2533 11.92 15.88C11.6 15.48 11.16 15.1733 10.6 14.96C10.0667 14.7467 9.38667 14.64 8.56 14.64C7.44 14.64 6.41333 14.72 5.48 14.88C4.54667 15.04 3.78667 15.2267 3.2 15.44L2.6 11.52C3.21333 11.3067 4.10667 11.0933 5.28 10.88C6.45333 10.6667 7.70667 10.56 9.04 10.56ZM30.7272 32.4C29.2872 32.3733 28.0872 32.2133 27.1272 31.92C26.1939 31.6267 25.4472 31.2133 24.8872 30.68C24.3272 30.12 23.9272 29.44 23.6872 28.64C23.4739 27.8133 23.3672 26.88 23.3672 25.84V1.76L28.2072 0.959999V24.92C28.2072 25.5067 28.2472 26 28.3272 26.4C28.4339 26.8 28.6072 27.1467 28.8472 27.44C29.0872 27.7067 29.4072 27.92 29.8072 28.08C30.2339 28.2133 30.7672 28.32 31.4072 28.4L30.7272 32.4ZM42.6022 32.4C41.1622 32.3733 39.9622 32.2133 39.0022 31.92C38.0689 31.6267 37.3222 31.2133 36.7622 30.68C36.2022 30.12 35.8022 29.44 35.5622 28.64C35.3489 27.8133 35.2422 26.88 35.2422 25.84V1.76L40.0822 0.959999V24.92C40.0822 25.5067 40.1222 26 40.2022 26.4C40.3089 26.8 40.4822 27.1467 40.7222 27.44C40.9622 27.7067 41.2822 27.92 41.6822 28.08C42.1089 28.2133 42.6422 28.32 43.2822 28.4L42.6022 32.4Z" fill="#27187F"/>
<path d="M55.2772 4C59.3039 4 62.3839 4.73333 64.5172 6.2C66.6772 7.66667 67.7572 9.96 67.7572 13.08C67.7572 14.7067 67.4639 16.1067 66.8772 17.28C66.3172 18.4267 65.4905 19.3733 64.3972 20.12C63.3039 20.84 61.9705 21.3733 60.3972 21.72C58.8239 22.0667 57.0239 22.24 54.9972 22.24H52.4772V32H47.4372V4.68C48.6105 4.41333 49.9039 4.24 51.3172 4.16C52.7572 4.05333 54.0772 4 55.2772 4ZM55.6372 8.36C54.3572 8.36 53.3039 8.4 52.4772 8.48V17.92H54.9172C57.3439 17.92 59.2105 17.5867 60.5172 16.92C61.8239 16.2267 62.4772 14.9333 62.4772 13.04C62.4772 12.1333 62.3039 11.3733 61.9572 10.76C61.6105 10.1467 61.1305 9.66667 60.5172 9.32C59.9039 8.97333 59.1705 8.73333 58.3172 8.6C57.4905 8.44 56.5972 8.36 55.6372 8.36ZM90.3359 21.52C90.3359 23.1733 90.0959 24.68 89.6159 26.04C89.1359 27.4 88.4559 28.56 87.5759 29.52C86.6959 30.48 85.6293 31.2267 84.3759 31.76C83.1493 32.2933 81.7893 32.56 80.2959 32.56C78.8026 32.56 77.4426 32.2933 76.2159 31.76C74.9893 31.2267 73.9359 30.48 73.0559 29.52C72.1759 28.56 71.4826 27.4 70.9759 26.04C70.4959 24.68 70.2559 23.1733 70.2559 21.52C70.2559 19.8667 70.4959 18.3733 70.9759 17.04C71.4826 15.68 72.1759 14.52 73.0559 13.56C73.9626 12.6 75.0293 11.8667 76.2559 11.36C77.4826 10.8267 78.8293 10.56 80.2959 10.56C81.7626 10.56 83.1093 10.8267 84.3359 11.36C85.5893 11.8667 86.6559 12.6 87.5359 13.56C88.4159 14.52 89.0959 15.68 89.5759 17.04C90.0826 18.3733 90.3359 19.8667 90.3359 21.52ZM85.3759 21.52C85.3759 19.44 84.9226 17.8 84.0159 16.6C83.1359 15.3733 81.8959 14.76 80.2959 14.76C78.6959 14.76 77.4426 15.3733 76.5359 16.6C75.6559 17.8 75.2159 19.44 75.2159 21.52C75.2159 23.6267 75.6559 25.2933 76.5359 26.52C77.4426 27.7467 78.6959 28.36 80.2959 28.36C81.8959 28.36 83.1359 27.7467 84.0159 26.52C84.9226 25.2933 85.3759 23.6267 85.3759 21.52ZM107.242 15.44C106.842 15.3067 106.282 15.1733 105.562 15.04C104.869 14.88 104.056 14.8 103.122 14.8C102.589 14.8 102.016 14.8533 101.402 14.96C100.816 15.0667 100.402 15.16 100.162 15.24V32H95.3222V12.08C96.2555 11.7333 97.4155 11.4133 98.8022 11.12C100.216 10.8 101.776 10.64 103.482 10.64C103.802 10.64 104.176 10.6667 104.602 10.72C105.029 10.7467 105.456 10.8 105.882 10.88C106.309 10.9333 106.722 11.0133 107.122 11.12C107.522 11.2 107.842 11.28 108.082 11.36L107.242 15.44ZM111.215 5.56L116.055 4.76V11.08H123.495V15.12H116.055V23.64C116.055 25.32 116.322 26.52 116.855 27.24C117.388 27.96 118.295 28.32 119.575 28.32C120.455 28.32 121.228 28.2267 121.895 28.04C122.588 27.8533 123.135 27.68 123.535 27.52L124.335 31.36C123.775 31.6 123.042 31.84 122.135 32.08C121.228 32.3467 120.162 32.48 118.935 32.48C117.442 32.48 116.188 32.28 115.175 31.88C114.188 31.48 113.402 30.9067 112.815 30.16C112.228 29.3867 111.815 28.4667 111.575 27.4C111.335 26.3067 111.215 25.0667 111.215 23.68V5.56Z" fill="#758BFD"/>
</svg>
